<?xml version="1.0" standalone="no"?><!DOCTYPE svg PUBLIC "-//W3C//DTD SVG 1.1//EN" "http://www.w3.org/Graphics/SVG/1.1/DTD/svg11.dtd"><svg t="1746518634617" class="icon" viewBox="0 0 1024 1024" version="1.1" xmlns="http://www.w3.org/2000/svg" p-id="52150" xmlns:xlink="http://www.w3.org/1999/xlink" width="200" height="200"><path d="M296.96 964.608C118.784 882.688 20.48 718.848 20.48 507.904c2.048-290.816 198.656-487.424 491.52-487.424 294.912 0 491.52 196.608 491.52 491.52 0 212.992-108.544 382.976-290.816 458.752-106.496 45.056-313.344 40.96-415.744-6.144z" fill="#85D279" p-id="52151"></path><path d="M249.856 774.144c-51.2-51.2-26.624-114.688 77.824-200.704 83.968-71.68 100.352-94.208 90.112-135.168-28.672-116.736 55.296-212.992 188.416-212.992h57.344l-57.344 59.392c-116.736 122.88 12.288 247.808 137.216 131.072l61.44-57.344-12.288 92.16c-14.336 120.832-75.776 172.032-182.272 157.696-71.68-10.24-81.92-4.096-161.792 90.112-83.968 102.4-147.456 126.976-198.656 75.776z m131.072-59.392c16.384-28.672-43.008-88.064-71.68-71.68-12.288 8.192-22.528 32.768-22.528 55.296 0 43.008 69.632 55.296 94.208 16.384z" fill="#FAFDF9" p-id="52152"></path></svg>